<svg version="1.1" id="Layer_1" xmlns="http://www.w3.org/2000/svg" xmlns:xlink="http://www.w3.org/1999/xlink" x="0px" y="0px"
	 width="100%" viewBox="0 0 512 512" enable-background="new 0 0 512 512" xml:space="preserve">
<path fill="#000000" opacity="1.000000" stroke="none" 
	d="
M281.031006,256.685974 
	C305.110291,256.684814 328.695343,256.684814 352.280365,256.684814 
	C352.320557,257.238190 352.360748,257.791565 352.400940,258.344971 
	C325.543549,261.194153 298.686188,264.043365 271.994019,266.875031 
	C270.054443,265.016937 270.865479,262.905273 270.662781,261.000610 
	C270.314850,257.731781 271.884918,256.465179 275.045410,256.674927 
	C276.868103,256.795898 278.705780,256.690582 281.031006,256.685974 
z"/>
<path fill="#000000" opacity="1.000000" stroke="none" 
	d="
M162.142258,287.885986 
	C183.518250,280.848297 204.555008,274.020752 225.515488,266.966614 
	C234.323044,264.002472 234.294418,263.813019 235.910904,274.408478 
	C209.432220,280.095886 182.901733,285.794403 155.328873,291.716797 
	C157.426147,288.353027 159.971207,288.999023 162.142258,287.885986 
z"/>
<path fill="#000000" opacity="1.000000" stroke="none" 
	d="
M255.420807,230.610077 
	C256.538116,235.143890 256.046875,239.358246 256.580505,243.466705 
	C256.989288,246.613647 255.445465,247.446915 252.893936,247.104584 
	C250.470627,246.779465 246.665268,248.691956 246.600357,243.839249 
	C246.560333,240.846436 246.577454,237.843140 246.776642,234.858414 
	C248.060974,215.611893 248.468369,196.332840 249.043350,177.059174 
	C249.141006,173.785599 249.545120,170.521164 250.977417,167.233658 
	C252.445999,188.205109 253.914566,209.176544 255.420807,230.610077 
z"/>
<path fill="#000000" opacity="1.000000" stroke="none" 
	d="
M270.833282,318.368347 
	C273.721558,331.000244 276.470154,343.232330 279.303192,355.840271 
	C276.820526,355.112152 276.922546,353.418976 276.466675,352.102997 
	C269.163605,331.021545 261.896118,309.927704 254.567810,288.855042 
	C251.664673,280.507019 252.174393,279.693848 262.163116,278.769867 
	C264.992065,291.769257 267.842834,304.868927 270.833282,318.368347 
z"/>
<path fill="#000000" opacity="1.000000" stroke="none" 
	d="
M213.820999,225.157089 
	C208.113892,218.394897 202.634979,211.903732 197.156067,205.412582 
	C197.537842,205.053116 197.919601,204.693649 198.301376,204.334183 
	C212.192139,217.401917 226.082901,230.469650 239.932373,243.498550 
	C236.664627,250.260559 235.345505,250.490067 230.808472,245.172058 
	C225.205627,238.604767 219.634201,232.010651 213.820999,225.157089 
z"/>
<path fill="#000000" opacity="1.000000" stroke="none" 
	d="
M280.089844,233.084076 
	C283.242035,230.803772 285.263824,227.592255 289.562164,227.105698 
	C283.025970,234.770889 276.489777,242.436081 270.018433,250.025208 
	C264.561493,247.293503 264.309082,245.989624 268.262939,242.749283 
	C272.109467,239.596893 275.962280,236.452225 280.089844,233.084076 
z"/>
<path fill="#000000" opacity="1.000000" stroke="none" 
	d="
M279.686279,283.371460 
	C276.423279,281.655823 273.527283,280.030426 270.555115,278.559021 
	C267.888092,277.238678 267.296051,275.585876 269.061188,273.045410 
	C270.858582,270.458466 272.296722,271.872253 273.933929,273.188568 
	C279.622772,277.762390 285.361908,282.273651 291.054260,286.843140 
	C291.883881,287.509155 293.185272,287.954987 292.730377,289.837097 
	C288.042908,288.548889 284.373108,285.304199 279.686279,283.371460 
z"/>
<path fill="#000000" opacity="1.000000" stroke="none" 
	d="
M236.551025,294.533447 
	C233.516907,298.822052 230.687027,302.814392 227.857132,306.806732 
	C227.427780,306.554230 226.998428,306.301727 226.569061,306.049255 
	C230.704697,297.392517 234.840317,288.735809 238.926666,280.182220 
	C241.372925,280.562378 242.903168,281.401825 244.133667,283.332367 
	C242.498932,287.421326 239.161026,290.530365 236.551025,294.533447 
z"/>
<path fill="#000000" opacity="1.000000" stroke="none" 
	d="
M209.086578,251.782135 
	C216.188736,252.970078 222.872757,254.103531 229.453339,255.219437 
	C230.317444,257.416077 229.461716,259.014374 228.351425,261.364929 
	C219.198364,258.237000 210.038712,255.106796 200.123642,251.718430 
	C203.546295,249.585938 206.101028,251.944870 209.086578,251.782135 
z"/>
</svg>