<svg xmlns="http://www.w3.org/2000/svg" xmlns:xlink="http://www.w3.org/1999/xlink" width="1080" zoomAndPan="magnify" viewBox="0 0 810 809.999993" height="1080" preserveAspectRatio="xMidYMid meet" version="1.2"><g id="646325e1f0"><path style=" stroke:none;fill-rule:nonzero;fill:#ffde59;fill-opacity:1;" d="M 518.476562 381.40625 C 609.085938 381.402344 697.839844 381.402344 786.589844 381.402344 C 786.742188 383.484375 786.890625 385.566406 787.042969 387.648438 C 685.976562 398.371094 584.914062 409.09375 484.46875 419.746094 C 477.171875 412.753906 480.222656 404.808594 479.460938 397.640625 C 478.152344 385.339844 484.058594 380.574219 495.953125 381.363281 C 502.8125 381.820312 509.726562 381.421875 518.476562 381.40625 Z M 518.476562 381.40625 "/><path style=" stroke:none;fill-rule:nonzero;fill:#ffde59;fill-opacity:1;" d="M 71.09375 498.8125 C 151.535156 472.328125 230.695312 446.636719 309.570312 420.09375 C 342.714844 408.9375 342.605469 408.226562 348.6875 448.097656 C 249.046875 469.5 149.214844 490.941406 45.457031 513.226562 C 53.347656 500.570312 62.925781 503 71.09375 498.8125 Z M 71.09375 498.8125 "/><path style=" stroke:none;fill-rule:nonzero;fill:#ffde59;fill-opacity:1;" d="M 422.105469 283.28125 C 426.308594 300.34375 424.460938 316.203125 426.46875 331.660156 C 428.007812 343.503906 422.195312 346.640625 412.59375 345.351562 C 403.476562 344.128906 389.15625 351.324219 388.914062 333.0625 C 388.761719 321.800781 388.828125 310.5 389.574219 299.269531 C 394.410156 226.84375 395.941406 154.296875 398.105469 81.769531 C 398.472656 69.449219 399.992188 57.164062 405.382812 44.796875 C 410.910156 123.710938 416.4375 202.628906 422.105469 283.28125 Z M 422.105469 283.28125 "/><path style=" stroke:none;fill-rule:nonzero;fill:#ffde59;fill-opacity:1;" d="M 480.101562 613.519531 C 490.96875 661.050781 501.3125 707.082031 511.972656 754.527344 C 502.632812 751.785156 503.015625 745.414062 501.300781 740.460938 C 473.820312 661.132812 446.472656 581.757812 418.894531 502.460938 C 407.96875 471.046875 409.886719 467.984375 447.476562 464.507812 C 458.121094 513.425781 468.847656 562.71875 480.101562 613.519531 Z M 480.101562 613.519531 "/><path style=" stroke:none;fill-rule:nonzero;fill:#ffde59;fill-opacity:1;" d="M 265.5625 262.761719 C 244.085938 237.316406 223.46875 212.890625 202.851562 188.464844 C 204.289062 187.109375 205.726562 185.757812 207.164062 184.40625 C 259.433594 233.578125 311.707031 282.753906 363.820312 331.78125 C 351.523438 357.226562 346.558594 358.089844 329.488281 338.078125 C 308.402344 313.367188 287.4375 288.550781 265.5625 262.761719 Z M 265.5625 262.761719 "/><path style=" stroke:none;fill-rule:nonzero;fill:#ffde59;fill-opacity:1;" d="M 514.933594 292.589844 C 526.796875 284.011719 534.402344 271.925781 550.578125 270.09375 C 525.984375 298.9375 501.386719 327.785156 477.035156 356.339844 C 456.5 346.0625 455.550781 341.15625 470.429688 328.960938 C 484.902344 317.097656 499.402344 305.265625 514.933594 292.589844 Z M 514.933594 292.589844 "/><path style=" stroke:none;fill-rule:nonzero;fill:#ffde59;fill-opacity:1;" d="M 513.414062 481.824219 C 501.136719 475.367188 490.238281 469.25 479.054688 463.714844 C 469.019531 458.746094 466.792969 452.527344 473.433594 442.96875 C 480.195312 433.230469 485.609375 438.550781 491.769531 443.503906 C 513.175781 460.71875 534.773438 477.691406 556.195312 494.886719 C 559.316406 497.394531 564.210938 499.070312 562.5 506.15625 C 544.863281 501.308594 531.050781 489.097656 513.414062 481.824219 Z M 513.414062 481.824219 "/><path style=" stroke:none;fill-rule:nonzero;fill:#ffde59;fill-opacity:1;" d="M 351.097656 523.828125 C 339.679688 539.964844 329.03125 554.988281 318.382812 570.011719 C 316.765625 569.0625 315.148438 568.113281 313.535156 567.160156 C 329.097656 534.585938 344.660156 502.011719 360.035156 469.824219 C 369.242188 471.253906 375 474.414062 379.628906 481.675781 C 373.480469 497.0625 360.917969 508.761719 351.097656 523.828125 Z M 351.097656 523.828125 "/><path style=" stroke:none;fill-rule:nonzero;fill:#ffde59;fill-opacity:1;" d="M 247.746094 362.953125 C 274.472656 367.421875 299.625 371.6875 324.386719 375.886719 C 327.640625 384.152344 324.417969 390.167969 320.242188 399.011719 C 285.796875 387.242188 251.332031 375.464844 214.019531 362.714844 C 226.898438 354.6875 236.511719 363.566406 247.746094 362.953125 Z M 247.746094 362.953125 "/></g></svg>